<?xml version="1.0" encoding="UTF-8"?>
<svg version="1.1" xmlns="http://www.w3.org/2000/svg" width="512" height="512">
<path d="M0 0 C27.66507773 19.10207748 38.12991661 72.40541441 43.78125 103.046875 C43.78125 104.366875 43.78125 105.686875 43.78125 107.046875 C44.58433594 106.88445312 45.38742188 106.72203125 46.21484375 106.5546875 C50.45838325 105.95045953 54.56482697 105.90081385 58.84375 105.921875 C59.63330078 105.91800781 60.42285156 105.91414063 61.23632812 105.91015625 C62.00525391 105.91144531 62.77417969 105.91273437 63.56640625 105.9140625 C64.25613525 105.91519043 64.94586426 105.91631836 65.65649414 105.91748047 C68.09681057 106.06609218 70.39594953 106.52247863 72.78125 107.046875 C72.88356934 106.34594727 72.98588867 105.64501953 73.09130859 104.92285156 C74.36314479 96.72895638 76.24534241 88.79838328 78.40625 80.796875 C78.58109924 80.1479126 78.75594849 79.4989502 78.93609619 78.83032227 C96.24352573 14.83403647 96.24352573 14.83403647 116.78125 0.046875 C122.34620771 -1.8081109 128.44693179 -1.88076813 133.90625 0.421875 C145.4964554 7.12830434 150.79222154 21.58410876 154.09375 33.859375 C160.47696728 59.73656705 154.25475856 84.56077755 140.94140625 107.16162109 C134.12845686 118.23266384 125.05623409 128.91580724 115.78125 138.046875 C116.85273581 140.78967362 117.97901098 143.48811886 119.18359375 146.17578125 C122.89070368 154.46725613 125.98835057 162.69456577 127.12109375 171.76953125 C127.95771138 178.00186257 129.61916354 180.26937106 134.55078125 184.078125 C143.49215908 191.97033941 148.08513771 203.34488811 148.8359375 215.03125 C148.58628411 228.79785132 143.1046656 239.74250234 133.84375 249.671875 C118.42483459 264.26929082 96.25236698 274.53423957 74.78125 274.046875 C89.68962772 299.76907599 111.7089631 315.86781345 139.78125 325.046875 C139.96903519 323.30989601 139.96903519 323.30989601 140.16061401 321.53782654 C140.68895171 317.33317661 141.61803098 313.28209004 142.71142578 309.19165039 C142.90515274 308.45035385 143.0988797 307.70905731 143.29847717 306.94529724 C143.93619049 304.51036897 144.58124521 302.07745431 145.2265625 299.64453125 C145.67958195 297.92233943 146.13220084 296.2000422 146.58444214 294.47764587 C147.53458814 290.86324551 148.48811604 287.24976102 149.44433594 283.63696289 C150.6492571 279.08429095 151.84806159 274.53003863 153.04475784 269.97519875 C155.32249023 261.30604764 157.61838552 252.64200829 159.93648148 243.98356056 C161.24649046 239.08207685 162.52165977 234.17324693 163.77636719 229.25732422 C164.35810395 227.03987631 164.94040657 224.82257673 165.5234375 222.60546875 C165.87355392 221.17908836 165.87355392 221.17908836 166.23074341 219.72389221 C168.52735793 211.1664236 173.17481495 203.0848784 180.65625 198.046875 C181.41679687 197.510625 182.17734375 196.974375 182.9609375 196.421875 C186.76836636 194.56562159 190.63514098 193.81655945 194.78125 193.046875 C194.37229492 192.29349854 194.37229492 192.29349854 193.95507812 191.52490234 C183.43152662 171.7954919 183.43152662 171.7954919 185.78125 160.046875 C188.50041457 151.15447196 194.21004793 145.49573325 202.28125 141.171875 C210.36708811 138.57285561 218.04816222 138.31990066 225.8671875 142.0390625 C227.52988034 143.00019718 229.15827453 144.0200946 230.78125 145.046875 C231.77125 145.376875 232.76125 145.706875 233.78125 146.046875 C234.1215625 145.58796875 234.461875 145.1290625 234.8125 144.65625 C239.17161421 139.13779691 243.61014362 136.26768662 250.34375 134.296875 C259.08099266 133.40074755 266.82563617 134.66805505 274.09375 139.796875 C279.41481995 144.13972805 283.31490743 149.24837764 284.78125 156.046875 C285.09251312 161.12537862 285.10051411 166.0996346 283.78125 171.046875 C285.080625 171.088125 286.38 171.129375 287.71875 171.171875 C294.17193982 171.90357526 299.02048739 175.05101095 303.38671875 179.7890625 C309.3798116 187.69783606 309.74015545 196.40787747 308.78125 206.046875 C306.76339288 212.9382174 302.90286908 218.27424929 296.78125 222.046875 C289.91668438 225.43429137 282.47779198 228.046875 274.78125 228.046875 C275.19697266 228.93439453 275.19697266 228.93439453 275.62109375 229.83984375 C275.98332031 230.63003906 276.34554688 231.42023438 276.71875 232.234375 C277.07839844 233.01167969 277.43804687 233.78898438 277.80859375 234.58984375 C281.11693015 242.94704695 280.87690288 252.45992608 277.44824219 260.71777344 C275.38696869 264.83428273 272.91641381 268.54463202 270.33203125 272.34765625 C269.80086197 273.13659271 269.26969269 273.92552917 268.72242737 274.7383728 C267.07922944 277.17717218 265.43041091 279.61210533 263.78125 282.046875 C262.81807748 283.47536761 261.8553308 284.90414745 260.89306641 286.33325195 C258.51211523 289.86726585 256.12597931 293.39774133 253.737854 296.9269104 C251.59276806 300.09696458 249.44905451 303.26794609 247.30523682 306.43885803 C246.1739097 308.11218841 245.04252099 309.78547715 243.91107178 311.45872498 C238.85670538 318.93375335 233.80711511 326.41199851 228.75952148 333.89160156 C226.52471052 337.2030656 224.28843948 340.51353646 222.05102539 343.82324219 C216.7644819 351.64589355 211.48882797 359.4752899 206.24880981 367.32920837 C203.80942947 370.9840723 201.36425625 374.63504277 198.91864014 378.28573608 C197.76083752 380.01754817 196.60584 381.75123953 195.45391846 383.48696899 C178.26067932 409.38971997 178.26067932 409.38971997 167.66796875 412.4921875 C157.4298354 414.45946076 148.53630269 413.0039076 139.52734375 407.7265625 C132.96417907 403.16846331 127.52755852 396.98464102 125.78125 389.046875 C125.5828495 387.31701238 125.4031636 385.58494107 125.23828125 383.8515625 C125.15167236 382.95163574 125.06506348 382.05170898 124.97583008 381.12451172 C124.91161865 380.4388916 124.84740723 379.75327148 124.78125 379.046875 C124.22477783 379.06258545 123.66830566 379.0782959 123.0949707 379.09448242 C107.33719871 379.4763035 92.21812933 378.29840582 76.78125 375.046875 C77.214375 376.40232422 77.214375 376.40232422 77.65625 377.78515625 C78.0275 378.96464844 78.39875 380.14414062 78.78125 381.359375 C79.1525 382.53113281 79.52375 383.70289063 79.90625 384.91015625 C80.78125 388.046875 80.78125 388.046875 80.78125 391.046875 C81.3175 391.00046875 81.85375 390.9540625 82.40625 390.90625 C99.8009649 390.1051776 117.4006093 397.44832992 130.34619141 408.72509766 C143.34769215 420.70028054 150.1574349 438.96647657 151.0546875 456.39453125 C151.09413898 457.96601529 151.1278842 459.53765178 151.15625 461.109375 C151.19363281 461.89892578 151.23101562 462.68847656 151.26953125 463.50195312 C151.28113281 464.27087891 151.29273438 465.03980469 151.3046875 465.83203125 C151.32450684 466.52176025 151.34432617 467.21148926 151.36474609 467.92211914 C150.43330852 471.31387696 148.44107845 472.822517 145.78125 475.046875 C142.69186306 475.67049408 142.69186306 475.67049408 139.16441345 475.66833496 C138.51271716 475.67472378 137.86102087 475.6811126 137.18957621 475.68769503 C135.01239068 475.70291768 132.83703336 475.68250394 130.65991211 475.66210938 C129.09558002 475.66561196 127.5312515 475.67127209 125.9669342 475.67892456 C121.71785283 475.69318032 117.46941826 475.67609257 113.22039866 475.65263939 C108.75611189 475.63248927 104.29185098 475.63841304 99.82752991 475.64074707 C92.31451828 475.64069346 84.80175774 475.62093349 77.28881836 475.58886719 C68.65088196 475.55217397 60.01327684 475.54316363 51.37527269 475.5501647 C43.02933285 475.55651916 34.68350461 475.54561199 26.33758736 475.52619934 C22.80662993 475.51810639 19.27573022 475.51530074 15.74476433 475.51689148 C-22.06961807 475.51920412 -56.92760654 472.83949132 -85.90625 445.859375 C-96.58985543 434.74920093 -108.21875 415.83751849 -108.21875 400.046875 C-108.71503906 400.31242187 -109.21132812 400.57796875 -109.72265625 400.8515625 C-120.40533131 406.4057427 -130.1933872 407.67630135 -141.90625 404.484375 C-151.50346537 401.18963719 -157.15082456 396.15279904 -162.125 387.37890625 C-165.52648841 380.12644703 -165.34813804 371.27962688 -162.71875 363.796875 C-158.60665914 354.83941834 -151.26877222 349.4734483 -142.21875 346.046875 C-130.97995704 342.39198298 -119.71883654 343.9508962 -109.21875 349.046875 C-108.89003906 347.17708984 -108.89003906 347.17708984 -108.5546875 345.26953125 C-101.84392444 308.61398099 -83.25285615 275.24167936 -52.33105469 253.44287109 C-45.56432963 248.97082603 -38.3877022 245.11542787 -31.28076172 241.21679688 C-29.54917545 240.23434821 -27.87526087 239.15121558 -26.21875 238.046875 C-26.49589844 237.44359375 -26.77304688 236.8403125 -27.05859375 236.21875 C-27.42082031 235.41953125 -27.78304687 234.6203125 -28.15625 233.796875 C-28.51589844 233.00796875 -28.87554687 232.2190625 -29.24609375 231.40625 C-32.78424226 222.82375321 -32.6261285 210.94190083 -29.65625 202.171875 C-26.27526587 194.38142555 -22.3910703 187.47573161 -15.46875 182.421875 C-9.91361948 177.85202946 -9.75416652 172.07611842 -8.88671875 165.3828125 C-7.82762891 157.54243777 -4.53550006 150.3840778 -0.78125 143.484375 C1.09639968 140.35593904 1.09639968 140.35593904 0.22265625 138.1953125 C-1.76857659 135.22735027 -4.23096286 132.78036053 -6.71875 130.234375 C-13.18334896 123.40543607 -18.3748154 116.09037771 -23.21875 108.046875 C-23.58484375 107.44117676 -23.9509375 106.83547852 -24.328125 106.21142578 C-37.09691877 84.69300114 -43.04111865 58.96790758 -38.21875 34.109375 C-35.0892305 22.92616313 -28.79640552 8.44738317 -19.03125 1.609375 C-13.26491225 -1.59414597 -6.21900356 -2.67154378 0 0 Z " fill="#010101" transform="translate(183.21875,18.953125)"/>
<path d="M0 0 C2.11328125 1.34765625 2.11328125 1.34765625 4.3125 3.0625 C17.81010274 12.82415913 32.74406015 18.1868698 49.125 20.6875 C49.99125 20.82091797 50.8575 20.95433594 51.75 21.09179688 C56.34431396 21.75565417 60.60127688 21.98083816 65.25 21.8125 C67.765625 22.0078125 67.765625 22.0078125 70 23 C72.42894437 26.17987756 74.14912227 29.46239829 75.921875 33.03515625 C87.18071171 55.47052823 109.7123015 71.94306424 132 82 C132.90363281 82.40863281 133.80726563 82.81726563 134.73828125 83.23828125 C140.66034668 85.74861668 146.77069438 87.38043007 152.99609375 88.97265625 C155.91306755 89.97026888 157.2531211 90.50617977 159 93 C159.89210717 97.94713975 159.89210717 97.94713975 159 101 C153.49071885 107.39834504 144.18938952 111.00360846 136 112 C122.68729324 112.72987589 109.98412692 111.94763311 97 109 C96.24750977 108.83419434 95.49501953 108.66838867 94.71972656 108.49755859 C87.70375502 106.94513196 80.82354007 105.27451336 74 103 C70.27354751 102.5528257 68.70918831 102.49610304 65.625 104.6875 C63.63874626 107.51409187 63.57851535 108.60332959 64 112 C65.56226341 114.59870404 65.56226341 114.59870404 67.6875 117.125 C74.52229283 126.18170428 77.48186409 134.78097759 79.32421875 145.8125 C79.82339739 149.13600717 79.82339739 149.13600717 82 152 C84.93775743 152.40269789 84.93775743 152.40269789 88.4375 152.375 C106.65613139 153.06795385 122.96929558 158.88544272 135.62109375 172.203125 C138.77356002 175.90947287 141.0567931 179.55289804 143 184 C143.37769531 184.85980469 143.75539063 185.71960938 144.14453125 186.60546875 C146.56778985 192.40245133 148.06007064 197.35307939 148.02441406 203.67285156 C148.02088928 204.48320862 148.0173645 205.29356567 148.01373291 206.128479 C148.00920105 206.74608093 148.00466919 207.36368286 148 208 C128.26635175 208.09385668 108.53274943 208.16418019 88.79892349 208.20724869 C79.6341018 208.22778655 70.4694196 208.25573709 61.3046875 208.30175781 C53.30740561 208.34189669 45.31022484 208.36749639 37.31284499 208.37635398 C33.08669354 208.38152345 28.86083113 208.39348517 24.63477325 208.42292023 C-8.32677442 208.64337056 -38.22995779 206.30268293 -63 182 C-63.95712891 181.07960938 -63.95712891 181.07960938 -64.93359375 180.140625 C-79.75376441 164.69332016 -83.61283151 141.20997222 -83.375 120.6875 C-83.37001495 119.9615564 -83.36502991 119.23561279 -83.3598938 118.4876709 C-83.27352023 107.75136231 -82.95322082 97.39077861 -80 87 C-79.66935547 85.80455566 -79.66935547 85.80455566 -79.33203125 84.58496094 C-69.33269698 49.46825131 -48.08876219 22.84305386 -16.375 5 C-13.92766703 3.64377695 -11.46909463 2.31685047 -9 1 C-8.29101562 0.566875 -7.58203125 0.13375 -6.8515625 -0.3125 C-4.20560296 -1.29496599 -2.66094824 -0.86222974 0 0 Z " fill="#F9F6F1" transform="translate(171,271)"/>
<path d="M0 0 C13.95488637 10.21396803 22.25708471 26.04648197 25.68359375 42.80859375 C26.04172932 45.28901416 26.16882111 47.74851376 26.3125 50.25 C26.63569467 53.75127557 26.81968846 54.77051259 29.0625 57.625 C30.031875 58.40875 31.00125 59.1925 32 60 C39.02595461 66.24529299 44.95362869 72.85610359 46.578125 82.39453125 C47.04787084 92.07770114 44.27860967 99.40162018 38.4296875 107.0546875 C25.46765784 121.14385018 2.94415887 129.12483102 -15.79785156 130.22241211 C-20.07354917 130.365508 -24.34724221 130.38709066 -28.625 130.375 C-29.38045105 130.37412384 -30.1359021 130.37324768 -30.91424561 130.37234497 C-42.07878293 130.3295718 -52.41493749 129.88348073 -63 126 C-63.67611328 125.75330566 -64.35222656 125.50661133 -65.04882812 125.25244141 C-79.88774243 119.69296776 -94.90949826 110.74824362 -102 96 C-104.30659282 88.48798825 -103.65096266 80.60495391 -100.46484375 73.484375 C-97.02847633 67.65629586 -92.34996935 62.63864284 -86.8125 58.77734375 C-82.99975188 55.01225498 -82.86320036 52.0467774 -82.375 46.875 C-81.43680474 39.44350599 -80.10266292 32.87496532 -77 26 C-76.64164063 25.1646875 -76.28328125 24.329375 -75.9140625 23.46875 C-68.75000552 7.89053214 -56.76726401 -1.8255565 -41 -8 C-27.33071418 -12.45737581 -11.48692351 -7.6692107 0 0 Z " fill="#F8F5F0" transform="translate(270,149)"/>
<path d="M0 0 C1.19302734 0.52207031 2.38605469 1.04414063 3.61523438 1.58203125 C13.1106204 5.91472526 23.06429162 11.68467409 27.2578125 21.7890625 C29.01210432 27.9908547 27.94658237 32.65755879 25.1953125 38.28515625 C19.59214148 48.27272945 12.50801343 57.47506746 5.8125 66.75 C2.2968372 66.16043367 -0.60090345 65.23636243 -3.8046875 63.68359375 C-4.65933594 63.28076172 -5.51398438 62.87792969 -6.39453125 62.46289062 C-8.1683487 61.61493836 -9.93922024 60.76079495 -11.70703125 59.90039062 C-16.81139926 57.50939719 -20.53538144 56.09243327 -26.1875 56.75 C-28.25152685 57.73048938 -28.25152685 57.73048938 -29.1875 59.75 C-29.74247578 63.78594744 -29.74247578 63.78594744 -27.99682617 67.2824707 C-25.75289524 69.10250428 -23.52242417 70.09923116 -20.86328125 71.23046875 C-19.83525391 71.67197266 -18.80722656 72.11347656 -17.74804688 72.56835938 C-16.14026367 73.24608398 -16.14026367 73.24608398 -14.5 73.9375 C-13.41654297 74.40091797 -12.33308594 74.86433594 -11.21679688 75.34179688 C-8.54303925 76.48432767 -5.86661414 77.62010033 -3.1875 78.75 C-4.75114248 83.26336309 -7.18895709 87.04770849 -9.8359375 90.984375 C-10.28973785 91.66300598 -10.74353821 92.34163696 -11.21109009 93.04083252 C-12.16843019 94.46791392 -13.12839394 95.89323837 -14.09082031 97.31689453 C-15.56194536 99.49917724 -17.01545368 101.6925359 -18.46875 103.88671875 C-19.40258588 105.27415151 -20.33744693 106.66089493 -21.2734375 108.046875 C-21.92208267 109.0327359 -21.92208267 109.0327359 -22.58383179 110.03851318 C-25.6880694 114.57414463 -25.6880694 114.57414463 -28.21540833 115.46405029 C-30.66849996 115.81974412 -31.82183403 115.33199577 -34.05078125 114.28125 C-34.77330078 113.95769531 -35.49582031 113.63414062 -36.24023438 113.30078125 C-37.73711612 112.60473771 -39.23194848 111.90426841 -40.72460938 111.19921875 C-45.59616826 109.02927859 -48.83847464 108.25531762 -54.1875 109.75 C-55.81941323 113.01382646 -55.73612988 115.15342633 -55.1875 118.75 C-50.28009589 123.64369627 -42.4384527 126.02762987 -36.1875 128.75 C-41.3251469 136.92498448 -46.62440588 144.9834563 -51.98583984 153.01269531 C-53.31911946 155.00991578 -54.64989988 157.00878536 -55.98046875 159.0078125 C-56.84360192 160.30218209 -57.70687814 161.5964563 -58.5703125 162.890625 C-58.96002228 163.47620178 -59.34973206 164.06177856 -59.75125122 164.6651001 C-60.88830345 166.36593048 -62.03461726 168.05986266 -63.1875 169.75 C-63.6173822 170.38200317 -64.0472644 171.01400635 -64.49017334 171.66516113 C-67.37814634 175.82441102 -69.29350784 178.15004103 -74.1875 179.75 C-80.2722493 180.75658492 -84.42919814 179.71573158 -89.4609375 176.1875 C-92.37503325 173.76128453 -94.4969918 171.1310164 -96.1875 167.75 C-96.43012583 162.8166082 -96.55859604 159.20391292 -94.1875 154.75 C-92.015625 153.23046875 -92.015625 153.23046875 -89.4375 151.9375 C-82.67156482 148.14388317 -78.6670944 143.09982913 -76.1875 135.75 C-75.05475975 127.88043613 -76.54020856 122.1576291 -81.1875 115.75 C-81.8475 115.09 -82.5075 114.43 -83.1875 113.75 C-82.79598633 102.20034686 -78.59368931 90.7168974 -75.1875 79.75 C-69.95002655 80.46101456 -65.59132219 82.88300398 -60.97851562 85.31054688 C-56.148451 87.70328658 -52.58100272 88.21774488 -47.1875 87.75 C-44.95141002 86.26869332 -44.95141002 86.26869332 -44.1875 83.75 C-44.00384496 80.77108548 -44.00384496 80.77108548 -45.1875 77.75 C-47.74268138 76.04046198 -49.91292106 74.84183327 -52.6875 73.625 C-53.41130859 73.28662109 -54.13511719 72.94824219 -54.88085938 72.59960938 C-56.97369312 71.6272005 -59.0778325 70.6852027 -61.1875 69.75 C-62.7034375 69.05777344 -62.7034375 69.05777344 -64.25 68.3515625 C-66.2190727 67.4616931 -68.20139904 66.60118613 -70.1875 65.75 C-69.62325329 59.71490042 -68.68071704 54.06542818 -67.12109375 48.21484375 C-66.92274429 47.45071671 -66.72439484 46.68658966 -66.52003479 45.89930725 C-65.89420419 43.49379929 -65.25977457 41.09066141 -64.625 38.6875 C-64.19538905 37.04246763 -63.76634752 35.39728645 -63.33789062 33.75195312 C-62.29432486 29.74955422 -61.24304878 25.74925456 -60.1875 21.75 C-56.1585301 23.02285316 -52.39862267 24.50988769 -48.59765625 26.3515625 C-47.56576172 26.84140625 -46.53386719 27.33125 -45.47070312 27.8359375 C-43.32369403 28.8619188 -41.18043559 29.89578608 -39.04101562 30.9375 C-31.42418803 34.57259647 -31.42418803 34.57259647 -23.1875 34.75 C-21.12347315 33.76951062 -21.12347315 33.76951062 -20.1875 31.75 C-19.90149811 28.31797729 -20.09559958 26.02570125 -21.1875 22.75 C-23.23562265 22.03283403 -25.29031699 21.3313739 -27.36669922 20.70068359 C-33.01955078 18.79552486 -38.35727765 16.09621404 -43.75 13.5625 C-44.96138029 12.99760008 -46.17296752 12.43314371 -47.38476562 11.86914062 C-50.32106791 10.50042601 -53.25521332 9.127291 -56.1875 7.75 C-54.54154629 0.37000292 -52.68319417 -4.23209837 -46.21484375 -8.57421875 C-30.58726358 -16.65744987 -14.33764715 -6.52351212 0 0 Z " fill="#F27D44" transform="translate(420.1875,237.25)"/>
<path d="M0 0 C7.42350686 2.76223511 11.20263686 13.79188388 14.39111328 20.640625 C23.45618061 40.90730752 29.7860013 62.18002993 34.83203125 83.75 C35.09910889 84.89073975 35.36618652 86.03147949 35.64135742 87.20678711 C35.8860376 88.27936768 36.13071777 89.35194824 36.3828125 90.45703125 C36.60235596 91.41714111 36.82189941 92.37725098 37.0480957 93.36645508 C37.51953125 95.9375 37.51953125 95.9375 37.51953125 99.9375 C35.2890625 101.68359375 35.2890625 101.68359375 32.33203125 103.375 C27.57822533 106.19075872 27.57822533 106.19075872 23.58203125 109.9375 C22.56109375 110.9275 22.56109375 110.9275 21.51953125 111.9375 C18.49090016 111.83959167 17.37682034 110.80959217 15.109375 108.77734375 C-4.1834406 87.66605952 -17.30819977 64.2257938 -16.578125 35.05322266 C-16.38462525 30.86105059 -15.60819457 26.96610544 -14.48046875 22.9375 C-14.28582031 22.1228125 -14.09117187 21.308125 -13.890625 20.46875 C-12.26576681 14.23852452 -7.77941509 -0.19601676 0 0 Z " fill="#F9F6F1" transform="translate(175.48046875,33.0625)"/>
<path d="M0 0 C6.54611087 2.93358002 9.39868267 11.58888274 11.91796875 17.76953125 C18.99213018 38.27434699 15.10181884 58.97928057 5.93115234 78.04052734 C0.75087218 88.31181914 -10.75103513 108.14357421 -22.00390625 111.89453125 C-24.23828125 110.3828125 -24.23828125 110.3828125 -26.75390625 108.20703125 C-30.68980969 104.91172206 -34.46138371 102.26454301 -39.00390625 99.89453125 C-36.93911044 84.23479273 -32.61447104 68.96943612 -28.00390625 53.89453125 C-27.70468262 52.91613281 -27.40545898 51.93773437 -27.09716797 50.9296875 C-23.75974139 40.1640188 -20.16590853 29.61100459 -15.37890625 19.39453125 C-14.85719849 18.27473877 -14.85719849 18.27473877 -14.32495117 17.13232422 C-5.80459974 -0.30550525 -5.80459974 -0.30550525 0 0 Z " fill="#F9F6F1" transform="translate(309.00390625,33.10546875)"/>
<path d="M0 0 C4.24697521 2.29336661 7.63968047 4.75142485 10 9 C11.00357885 16.1726371 7.16284767 21.34389544 3.53515625 27.19140625 C1.48825415 30.9362475 1.1186511 32.85766017 2 37 C2.98048938 39.06402685 2.98048938 39.06402685 5 40 C8.62638775 40.48351837 10.520683 40.26144564 13.75 38.5 C18.2182467 36.43773229 22.15609566 36.136419 27 37 C30.11771358 38.6937277 32.38989747 40.77979493 34 44 C34.62567231 48.96962581 34.57285991 52.85428019 32.3125 57.375 C28.07291982 61.63860047 21.62253372 62.55438837 16 64 C14.43958984 64.46792969 14.43958984 64.46792969 12.84765625 64.9453125 C4.85762726 67.32623389 1.66081489 66.46301513 -5.6875 62.625 C-13.01005332 58.88067146 -20.47130382 55.49547155 -28 52.1875 C-29.06178467 51.71973145 -30.12356934 51.25196289 -31.2175293 50.77001953 C-32.23886963 50.32384277 -33.26020996 49.87766602 -34.3125 49.41796875 C-35.29089844 48.98500488 -36.26929688 48.55204102 -37.27734375 48.10595703 C-39.64845114 47.14280096 -41.90532263 46.51097026 -44.375 45.87890625 C-49.07666702 44.15410993 -50.57252494 40.22427424 -52.61328125 35.90234375 C-53.07089844 34.86207031 -53.52851563 33.82179687 -54 32.75 C-54.48855469 31.72519531 -54.97710937 30.70039063 -55.48046875 29.64453125 C-57.95948311 24.24902941 -59.84537569 19.95676758 -59 14 C-57.38679279 10.94642921 -55.96939098 8.76166434 -53.25 6.625 C-48.37844503 5.27179029 -44.36052733 5.51226379 -39.6875 7.1875 C-34.61361719 10.60942097 -33.4205258 15.38297823 -31.74609375 21.01171875 C-31.08465916 23.19107881 -31.08465916 23.19107881 -29 25 C-24.94738713 25.34490322 -23.45245824 25.30163882 -20 23 C-18.69015427 19.48873287 -17.56545389 15.97911633 -16.51367188 12.38476562 C-14.74122341 6.85607136 -12.79526689 4.30995058 -8 1 C-5.13391871 -0.43304064 -3.18699217 -0.30644155 0 0 Z " fill="#92DD5F" transform="translate(443,168)"/>
<path d="M0 0 C2.11328125 1.34765625 2.11328125 1.34765625 4.3125 3.0625 C17.81010274 12.82415913 32.74406015 18.1868698 49.125 20.6875 C49.99125 20.82091797 50.8575 20.95433594 51.75 21.09179688 C56.34431396 21.75565417 60.60127688 21.98083816 65.25 21.8125 C67.73828125 21.97265625 67.73828125 21.97265625 70 23 C72.5611268 26.34648084 74.44452724 29.69178756 76.24609375 33.484375 C77.87374207 36.74692175 79.70581945 39.19656179 82 42 C82 42.66 82 43.32 82 44 C67.17330495 51.41334752 37.10266442 42.34685216 22.19921875 37.46484375 C5.36079214 31.68551763 -9.90919134 23.36352536 -22 10 C-22 9.34 -22 8.68 -22 8 C-19.28348686 6.45570235 -16.55013724 4.94398394 -13.8125 3.4375 C-13.04357422 2.99986328 -12.27464844 2.56222656 -11.48242188 2.11132812 C-4.2247104 -1.84459186 -4.2247104 -1.84459186 0 0 Z " fill="#F0EDE8" transform="translate(171,271)"/>
<path d="M0 0 C2.9375 1 2.9375 1 5 2 C5.66 1.34 6.32 0.68 7 0 C14.01081917 -0.55641422 14.01081917 -0.55641422 17 1.125 C18.57111163 4.0708343 18.57264296 5.69139624 18 9 C16.58447275 10.90843406 15.03317253 12.59355261 13.40234375 14.3203125 C11.62976262 16.44345981 11.16610041 18.25934329 11 21 C11.88751953 20.93039063 11.88751953 20.93039063 12.79296875 20.859375 C16.84074034 20.67448494 19.39405681 20.69084531 23.0625 22.5625 C25 25 25 25 25.5625 28.5 C25 32 25 32 23.6875 34.4375 C19.38531865 36.93876823 14.85749939 36.59254603 10 36 C9.16984375 35.64421875 8.3396875 35.2884375 7.484375 34.921875 C4.43176076 33.78914393 2.83020541 34.13821523 -0.3125 34.875 C-11.97685749 37.26446407 -11.97685749 37.26446407 -16.5 34.4375 C-18.60020266 31.02467068 -18.63210717 28.93311127 -18 25 C-15.23569209 21.71738436 -12.81606031 20.79265269 -8.6875 20.25 C-6.8621875 20.12625 -6.8621875 20.12625 -5 20 C-5.33229812 16.23395468 -6.00624141 14.99316417 -8.625 12.125 C-11 9 -11 9 -11 5.25 C-9.16968381 -0.69852762 -5.55966843 -0.38342541 0 0 Z " fill="#040404" transform="translate(238,220)"/>
<path d="M0 0 C3.84801014 2.31539797 6.36841628 5.29933256 8.375 9.3125 C8.77899154 14.56439007 8.26490343 17.88131474 5.375 22.3125 C0.1641316 27.40757133 -4.30658778 29.34652786 -11.5 29.6875 C-18.30847431 29.52368708 -22.60512082 27.16047457 -27.5625 22.625 C-30.14668041 18.47464964 -31.05848505 15.19133173 -30.625 10.3125 C-28.99177515 5.44147853 -25.85846742 2.13481161 -21.625 -0.6875 C-15.03262199 -2.88495934 -6.36186979 -2.98250228 0 0 Z " fill="#F5C6BD" transform="translate(64.625,380.6875)"/>
<path d="M0 0 C4.75 0.75 4.75 0.75 7 3 C6.78794922 3.73001221 6.57589844 4.46002441 6.35742188 5.2121582 C5.38990382 8.57481504 4.44487627 11.94341415 3.5 15.3125 C3.16613281 16.46041016 2.83226562 17.60832031 2.48828125 18.79101562 C0.27542253 26.76182304 -1.69221779 34.92334663 1 43 C3.16650622 49.49951865 2.87754711 55.90484765 0 62.125 C-2.53222053 66.68008635 -5.74903356 70.42003533 -9.328125 74.1875 C-13.14478142 78.32518359 -12.31735161 83.1139598 -12.30078125 88.48828125 C-11.90821369 93.07163501 -10.75282307 95.38691973 -8 99 C-13.91784383 97.73189061 -16.58593084 94.7151965 -20 90 C-21.9517598 86.09648039 -21.41777673 81.5113016 -20.28515625 77.4140625 C-18.68758528 74.41315412 -17.26204527 73.69808634 -14.25 72.1875 C-7.48406482 68.39388317 -3.4795944 63.34982913 -1 56 C0.13274025 48.13043613 -1.35270856 42.4076291 -6 36 C-6.66 35.34 -7.32 34.68 -8 34 C-7.60848633 22.45034686 -3.40618931 10.9668974 0 0 Z " fill="#EC6827" transform="translate(345,317)"/>
<path d="M0 0 C0.0515625 0.66902344 0.103125 1.33804688 0.15625 2.02734375 C1.63031185 14.50661734 7.28674115 28.64753009 17 37 C24.36917223 42.06805051 32.45405855 45.62962318 40.625 49.1875 C41.800625 49.70763672 42.97625 50.22777344 44.1875 50.76367188 C50.06963853 53.35115191 55.95201114 55.827204 62 58 C62 58.33 62 58.66 62 59 C56.98207251 60.18605559 54.24421517 60.50387599 49.77734375 57.78515625 C45.28383389 55.1502016 40.71111042 52.84342523 36 50.625 C35.18837402 50.24142334 34.37674805 49.85784668 33.54052734 49.46264648 C20.25117369 43.20924417 20.25117369 43.20924417 6.4597168 38.22314453 C3.2930422 36.64845076 2.61938465 35.18402238 1.10546875 32.01953125 C0.62529297 31.01986328 0.14511719 30.02019531 -0.34960938 28.99023438 C-0.83236328 27.94158203 -1.31511719 26.89292969 -1.8125 25.8125 C-2.31458984 24.78318359 -2.81667969 23.75386719 -3.33398438 22.69335938 C-7.89265662 13.01160785 -7.89265662 13.01160785 -7 7 C-3.11111111 0 -3.11111111 0 0 0 Z " fill="#7FD545" transform="translate(391,175)"/>
<path d="M0 0 C5.75 1.75 5.75 1.75 8 4 C7.55164795 4.98299072 7.1032959 5.96598145 6.64135742 6.97875977 C4.91613122 11.01136931 3.79487521 15.09055904 2.73828125 19.33984375 C2.54276169 20.10680069 2.34724213 20.87375763 2.14579773 21.66395569 C1.52934774 24.08715072 0.92080204 26.51224823 0.3125 28.9375 C-0.10689863 30.5919296 -0.52681557 32.24622791 -0.94726562 33.90039062 C-1.97083969 37.9321012 -2.98733527 41.9655361 -4 46 C-5.98 45.34 -7.96 44.68 -10 44 C-9.43575329 37.96490042 -8.49321704 32.31542818 -6.93359375 26.46484375 C-6.73524429 25.70071671 -6.53689484 24.93658966 -6.33253479 24.14930725 C-5.70670419 21.74379929 -5.07227457 19.34066141 -4.4375 16.9375 C-4.00788905 15.29246763 -3.57884752 13.64728645 -3.15039062 12.00195312 C-2.10682486 7.99955422 -1.05554878 3.99925456 0 0 Z " fill="#EA6827" transform="translate(360,259)"/>
<path d="M0 0 C0.66 0.33 1.32 0.66 2 1 C1.34 1.66 0.68 2.32 0 3 C-0.91139906 8.16139677 -0.56387109 12.77340893 2.125 17.3125 C5.76695328 22.40506178 9.94500221 26.04103013 16 28 C15.67 28.66 15.34 29.32 15 30 C8.04467415 30.51309781 2.78234641 30.12474044 -3 26 C-7.23490336 22.12551395 -8.86784674 18.86604387 -9.19921875 13.2421875 C-8.74497156 8.12967994 -6.04075369 4.92248623 -2.25 1.5625 C-1.5075 1.046875 -0.765 0.53125 0 0 Z " fill="#E9A599" transform="translate(43,380)"/>
<path d="M0 0 C2.57572291 2.24337157 2.93881541 3.63289245 3.5 7 C3 10 3 10 0.9375 12.4375 C-2.91296839 14.48562148 -4.85935777 14.22685696 -9 13 C-11 11.375 -11 11.375 -12 9 C-11.93439072 5.260271 -11.76345433 2.9396361 -9.375 0 C-5.88418213 -1.46981805 -3.60851044 -0.98413921 0 0 Z " fill="#0A0A0A" transform="translate(269,188)"/>
<path d="M0 0 C2 1.625 2 1.625 3 4 C2.93439072 7.739729 2.76345433 10.0603639 0.375 13 C-3.11581787 14.46981805 -5.39148956 13.98413921 -9 13 C-11 11.375 -11 11.375 -12 9 C-11.93439072 5.260271 -11.76345433 2.9396361 -9.375 0 C-5.88418213 -1.46981805 -3.60851044 -0.98413921 0 0 Z " fill="#080808" transform="translate(223,188)"/>
<path d="M0 0 C-0.28746094 0.54785156 -0.57492187 1.09570312 -0.87109375 1.66015625 C-2.10087428 4.20907853 -3.09273034 6.77892996 -4.0625 9.4375 C-4.40410156 10.36433594 -4.74570312 11.29117188 -5.09765625 12.24609375 C-5.94242242 14.82427621 -6.5301231 17.33090547 -7 20 C-9.31 19.01 -11.62 18.02 -14 17 C-12.85495141 10.47322306 -10.84179145 6.55842961 -6 2 C-3 0 -3 0 0 0 Z " fill="#E66626" transform="translate(378,228)"/>
<path d="M0 0 C7.30989876 5.18338275 13.57205397 10.83511124 19 18 C18.01 18.33 17.02 18.66 16 19 C13.765625 17.48828125 13.765625 17.48828125 11.25 15.3125 C7.31409656 12.01719081 3.54252254 9.37001176 -1 7 C-0.67 4.69 -0.34 2.38 0 0 Z " fill="#E0DCD4" transform="translate(271,126)"/>
<path d="M0 0 C2 2 2 2 2 6 C-0.23046875 7.74609375 -0.23046875 7.74609375 -3.1875 9.4375 C-7.94130592 12.25325872 -7.94130592 12.25325872 -11.9375 16 C-12.618125 16.66 -13.29875 17.32 -14 18 C-16.12890625 17.625 -16.12890625 17.625 -18 17 C-6.63586957 3.41847826 -6.63586957 3.41847826 0 0 Z " fill="#E3DFD7" transform="translate(211,127)"/>
<path d="M0 0 C5.91313171 2.04479569 11.57784437 4.46865463 17.25219727 7.09960938 C23.16691077 9.82947715 29.05988105 12.38862364 35.18969727 14.59960938 C35.18969727 14.92960938 35.18969727 15.25960937 35.18969727 15.59960938 C30.20070114 16.77882664 27.45785511 17.1170102 23.02172852 14.40429688 C18.24449342 11.59980725 13.33885513 9.23796163 8.31469727 6.91210938 C6.64960783 6.13957938 4.98550091 5.36492722 3.32250977 4.58789062 C2.59950684 4.25313721 1.87650391 3.91838379 1.1315918 3.57348633 C-0.81030273 2.59960938 -0.81030273 2.59960938 -3.81030273 0.59960938 C-1.81030273 -0.40039062 -1.81030273 -0.40039062 0 0 Z " fill="#79CA42" transform="translate(417.810302734375,218.400390625)"/>
<path d="M0 0 C0.66 0.33 1.32 0.66 2 1 C1.75 3.375 1.75 3.375 1 6 C-1.0625 7.3125 -1.0625 7.3125 -3 8 C-2.690625 7.236875 -2.38125 6.47375 -2.0625 5.6875 C-1.32106407 3.81210323 -0.63771783 1.91315348 0 0 Z " fill="#E36425" transform="translate(343,375)"/>
<path d="M0 0 C2.9375 0.8125 2.9375 0.8125 6 2 C6.33 2.99 6.66 3.98 7 5 C4.03 4.01 1.06 3.02 -2 2 C-1.34 1.34 -0.68 0.68 0 0 Z " fill="#77C640" transform="translate(416,218)"/>
</svg>
